<svg xmlns="http://www.w3.org/2000/svg">
    <path id="arrow-down" d="M4.77148 5.46094C4.89844 5.58789 5.07617 5.58789 5.20312 5.46094L8.96094 1.72852C9.08789 1.62695 9.08789 1.42383 8.96094 1.29688L8.45312 0.814453C8.35156 0.6875 8.14844 0.6875 8.02148 0.814453L5 3.81055L1.95312 0.814453C1.82617 0.6875 1.64844 0.6875 1.52148 0.814453L1.01367 1.29688C0.886719 1.42383 0.886719 1.62695 1.01367 1.72852L4.77148 5.46094Z" />
    <path id="directory" d="M10.875 1.5H6.375L4.875 0H1.125C0.492188 0 0 0.515625 0 1.125V7.875C0 8.50781 0.492188 9 1.125 9H10.875C11.4844 9 12 8.50781 12 7.875V2.625C12 2.01562 11.4844 1.5 10.875 1.5Z"/>
    <path id="script" d="M9.5 3.35938C9.5 3.24219 9.40625 3.05469 9.3125 2.96094L7.03906 0.6875C6.92188 0.570312 6.78125 0.5 6.64062 0.5H6.5V3.5H9.5V3.35938ZM6.3125 4.25C5.98438 4.25 5.75 4.01562 5.75 3.6875V0.5H1.0625C0.734375 0.5 0.5 0.757812 0.5 1.0625V11.9375C0.5 12.2656 0.734375 12.5 1.0625 12.5H8.9375C9.24219 12.5 9.5 12.2656 9.5 11.9375V4.25H6.3125ZM3.38281 9.89844C3.35938 9.92188 3.3125 9.94531 3.28906 9.94531C3.26562 9.94531 3.21875 9.92188 3.19531 9.89844L1.67188 8.46875C1.64844 8.46875 1.64844 8.42188 1.64844 8.375C1.64844 8.35156 1.64844 8.30469 1.67188 8.30469L3.19531 6.875C3.21875 6.85156 3.26562 6.82812 3.28906 6.82812C3.3125 6.82812 3.35938 6.85156 3.38281 6.875L3.82812 7.36719C3.85156 7.39062 3.875 7.41406 3.875 7.46094C3.875 7.48438 3.85156 7.53125 3.82812 7.55469L2.86719 8.375L3.82812 9.21875C3.85156 9.24219 3.875 9.28906 3.875 9.3125C3.875 9.35938 3.85156 9.38281 3.82812 9.40625L3.38281 9.89844ZM4.57812 11.0703L3.94531 10.9062C3.875 10.8828 3.85156 10.8359 3.85156 10.7656V10.7422L5.28125 5.77344C5.30469 5.72656 5.35156 5.67969 5.39844 5.67969C5.42188 5.67969 5.44531 5.67969 5.44531 5.70312L6.07812 5.86719C6.14844 5.89062 6.17188 5.9375 6.17188 6.00781V6.03125L4.74219 11C4.71875 11.0469 4.67188 11.0938 4.625 11.0938C4.60156 11.0938 4.57812 11.0938 4.57812 11.0703ZM8.35156 8.46875L6.82812 9.89844C6.80469 9.92188 6.75781 9.94531 6.73438 9.94531C6.71094 9.94531 6.66406 9.92188 6.64062 9.89844L6.19531 9.40625C6.17188 9.38281 6.14844 9.35938 6.14844 9.3125C6.14844 9.28906 6.17188 9.24219 6.19531 9.21875L7.15625 8.375L6.19531 7.55469C6.17188 7.53125 6.14844 7.48438 6.14844 7.46094C6.14844 7.41406 6.17188 7.39062 6.19531 7.36719L6.64062 6.875C6.66406 6.85156 6.71094 6.82812 6.73438 6.82812C6.75781 6.82812 6.80469 6.85156 6.82812 6.875L8.35156 8.30469C8.375 8.30469 8.39844 8.35156 8.39844 8.375C8.39844 8.42188 8.375 8.46875 8.35156 8.46875Z"/>
    <path id="file" d="M5.75 3.6875V0.5H1.0625C0.734375 0.5 0.5 0.757812 0.5 1.0625V11.9375C0.5 12.2656 0.734375 12.5 1.0625 12.5H8.9375C9.24219 12.5 9.5 12.2656 9.5 11.9375V4.25H6.3125C5.98438 4.25 5.75 4.01562 5.75 3.6875ZM7.25 9.21875C7.25 9.38281 7.10938 9.5 6.96875 9.5H3.03125C2.86719 9.5 2.75 9.38281 2.75 9.21875V9.03125C2.75 8.89062 2.86719 8.75 3.03125 8.75H6.96875C7.10938 8.75 7.25 8.89062 7.25 9.03125V9.21875ZM7.25 7.71875C7.25 7.88281 7.10938 8 6.96875 8H3.03125C2.86719 8 2.75 7.88281 2.75 7.71875V7.53125C2.75 7.39062 2.86719 7.25 3.03125 7.25H6.96875C7.10938 7.25 7.25 7.39062 7.25 7.53125V7.71875ZM7.25 6.03125V6.21875C7.25 6.38281 7.10938 6.5 6.96875 6.5H3.03125C2.86719 6.5 2.75 6.38281 2.75 6.21875V6.03125C2.75 5.89062 2.86719 5.75 3.03125 5.75H6.96875C7.10938 5.75 7.25 5.89062 7.25 6.03125ZM9.5 3.35938C9.5 3.21875 9.42969 3.07812 9.33594 2.96094L7.03906 0.664062C6.92188 0.570312 6.78125 0.5 6.64062 0.5H6.5V3.5H9.5V3.35938Z"/>
    <path id="arrow-right" d="M0.9375 1.02344L0.15625 1.76562C0 1.96094 0 2.27344 0.15625 2.42969L7.22656 9.5L0.15625 16.6094C0 16.7656 0 17.0781 0.15625 17.2734L0.9375 18.0156C1.13281 18.2109 1.40625 18.2109 1.60156 18.0156L9.80469 9.85156C9.96094 9.65625 9.96094 9.38281 9.80469 9.1875L1.60156 1.02344C1.40625 0.828125 1.13281 0.828125 0.9375 1.02344Z" />
    <path id="branch" d="M9.23679 3.875C9.23679 2.84375 8.39304 2 7.36179 2C6.3071 2 5.48679 2.84375 5.48679 3.875C5.48679 4.74219 6.04929 5.46875 6.82273 5.67969C6.79929 6.05469 6.72898 6.35938 6.56492 6.54688C6.21335 6.99219 5.41648 7.08594 4.57273 7.15625C3.91648 7.20312 3.21335 7.27344 2.67429 7.55469V4.17969C3.42429 3.94531 3.98679 3.21875 3.98679 2.375C3.98679 1.34375 3.14304 0.5 2.11179 0.5C1.0571 0.5 0.236791 1.34375 0.236791 2.375C0.236791 3.21875 0.775853 3.94531 1.54929 4.17969V8.84375C0.775853 9.07812 0.236791 9.80469 0.236791 10.625C0.236791 11.6797 1.0571 12.5 2.11179 12.5C3.14304 12.5 3.98679 11.6797 3.98679 10.625C3.98679 9.82812 3.47117 9.14844 2.76804 8.89062C2.83835 8.77344 2.95554 8.65625 3.1196 8.5625C3.4946 8.375 4.08054 8.32812 4.66648 8.28125C5.67429 8.1875 6.77585 8.07031 7.45554 7.25C7.78367 6.85156 7.94773 6.3125 7.94773 5.65625C8.69773 5.42188 9.23679 4.71875 9.23679 3.875ZM2.11179 2C2.29929 2 2.48679 2.1875 2.48679 2.375C2.48679 2.58594 2.29929 2.75 2.11179 2.75C1.90085 2.75 1.73679 2.58594 1.73679 2.375C1.73679 2.1875 1.90085 2 2.11179 2ZM2.11179 11C1.90085 11 1.73679 10.8359 1.73679 10.625C1.73679 10.4375 1.90085 10.25 2.11179 10.25C2.29929 10.25 2.48679 10.4375 2.48679 10.625C2.48679 10.8359 2.29929 11 2.11179 11ZM7.36179 3.5C7.54929 3.5 7.73679 3.6875 7.73679 3.875C7.73679 4.08594 7.54929 4.25 7.36179 4.25C7.15085 4.25 6.98679 4.08594 6.98679 3.875C6.98679 3.6875 7.15085 3.5 7.36179 3.5Z" />
    <path id="download" d="M12.375 7.25C12.6797 7.25 12.9375 7.36719 13.1719 7.57812C13.3828 7.8125 13.5 8.07031 13.5 8.375V11.375C13.5 11.7031 13.3828 11.9609 13.1719 12.1719C12.9375 12.4062 12.6797 12.5 12.375 12.5H1.125C0.796875 12.5 0.539062 12.4062 0.328125 12.1719C0.09375 11.9609 0 11.7031 0 11.375V8.375C0 8.07031 0.09375 7.8125 0.328125 7.57812C0.539062 7.36719 0.796875 7.25 1.125 7.25H3.28125L2.20312 6.17188C1.96875 5.9375 1.875 5.67969 1.875 5.375C1.875 5.07031 1.99219 4.8125 2.20312 4.57812C2.41406 4.36719 2.67188 4.25 3 4.25H4.5V1.625C4.5 1.32031 4.59375 1.0625 4.82812 0.828125C5.03906 0.617188 5.29688 0.5 5.625 0.5H7.875C8.17969 0.5 8.4375 0.617188 8.67188 0.828125C8.88281 1.0625 9 1.32031 9 1.625V4.25H10.5C10.8281 4.25 11.0859 4.36719 11.2969 4.57812C11.5078 4.8125 11.625 5.07031 11.625 5.375C11.625 5.67969 11.5312 5.9375 11.2969 6.17188L10.2188 7.25H12.375ZM3 5.375L6.75 9.125L10.5 5.375H7.875V1.625H5.625V5.375H3ZM12.375 11.375V8.375H9.09375L7.54688 9.92188C7.3125 10.1562 7.05469 10.25 6.75 10.25C6.42188 10.25 6.16406 10.1562 5.95312 9.92188L4.40625 8.375H1.125V11.375H12.375ZM10.3125 9.875C10.3125 10.0391 10.3594 10.1797 10.4766 10.2734C10.5703 10.3906 10.7109 10.4375 10.875 10.4375C11.0156 10.4375 11.1562 10.3906 11.2734 10.2734C11.3672 10.1797 11.4375 10.0391 11.4375 9.875C11.4375 9.73438 11.3672 9.59375 11.2734 9.47656C11.1562 9.38281 11.0156 9.3125 10.875 9.3125C10.7109 9.3125 10.5703 9.38281 10.4766 9.47656C10.3594 9.59375 10.3125 9.73438 10.3125 9.875Z"/>
    <path id="history" d="M0 0V6.4H3.29C3.395 5.5475 3.62 4.4575 4.09 4.03C4.52875 3.63125 5.5775 3.41875 6.4 3.31V0H0ZM7.52 3.84C7.13625 3.84 5.00125 4.0625 4.52 4.5C3.99625 4.97625 3.84 7.28625 3.84 7.52C3.84 7.8675 4.025 10.045 4.5 10.52C4.87 10.9262 6.33875 11.1075 7.09 11.17C7.23125 10.1362 7.695 9.185 8.44 8.44C9.185 7.695 10.1362 7.23125 11.17 7.09C11.105 6.3325 10.915 4.895 10.54 4.52C10.0638 3.99625 7.75375 3.84 7.52 3.84ZM11.84 7.68C10.7225 7.68 9.6725 8.1075 8.89 8.89C8.1075 9.6725 7.68 10.7225 7.68 11.84C7.68 12.9575 8.1075 14.0075 8.89 14.79C9.6725 15.5725 10.7225 16 11.84 16C12.9575 16 14.0075 15.5725 14.79 14.79C15.5725 14.0075 16 12.9575 16 11.84C16 10.7225 15.5725 9.6725 14.79 8.89C14.0075 8.1075 12.9575 7.68 11.84 7.68Z" fill="#FF5668"/>
    <path id="tag" d="M7.39844 14.75C7.53516 14.7773 7.64453 14.7227 7.67188 14.6133L11.5273 1.35156C11.5547 1.24219 11.5 1.10547 11.3906 1.07812L10.3242 0.777344C10.2148 0.75 10.0781 0.804688 10.0508 0.914062L6.19531 14.1758C6.16797 14.2852 6.22266 14.4219 6.35938 14.4492L7.39844 14.75ZM5.12891 11.4414L5.86719 10.6484C5.94922 10.5664 5.94922 10.4297 5.86719 10.3477L2.96875 7.75L5.86719 5.17969C5.94922 5.09766 5.94922 4.96094 5.86719 4.87891L5.12891 4.08594C5.04688 4.00391 4.91016 3.97656 4.82812 4.05859L1.05469 7.61328C0.972656 7.69531 0.972656 7.83203 1.05469 7.91406L4.82812 11.4414C4.91016 11.5234 5.04688 11.5234 5.12891 11.4414ZM12.8945 11.4414L16.668 7.91406C16.75 7.83203 16.75 7.69531 16.668 7.61328L12.8945 4.05859C12.8125 3.97656 12.6758 4.00391 12.5938 4.08594L11.8555 4.87891C11.7734 4.96094 11.7734 5.09766 11.8555 5.17969L14.7539 7.75L11.8555 10.3477C11.7734 10.4297 11.7734 10.5664 11.8555 10.6484L12.5938 11.4414C12.6758 11.5234 12.8125 11.5234 12.8945 11.4414Z" fill="#7F8285"/>
</svg>